<svg xmlns="http://www.w3.org/2000/svg" width="27.893" height="31.993" viewBox="0 0 27.893 31.993"><g transform="translate(0)"><path d="M17.975,31.993H9.641a.213.213,0,0,1-.214-.211v-.855a.212.212,0,0,1,.214-.209h8.334a.211.211,0,0,1,.213.209v.855A.212.212,0,0,1,17.975,31.993ZM27.244,29.7H18.778a.212.212,0,0,1-.215-.209v-.856a.215.215,0,0,1,.215-.209H26.6V3.578H18.778a.215.215,0,0,1-.215-.21V2.512a.215.215,0,0,1,.215-.21h8.466a.644.644,0,0,1,.649.637V29.066A.643.643,0,0,1,27.244,29.7Zm-18.216,0H.649A.643.643,0,0,1,0,29.066V2.939A.644.644,0,0,1,.649,2.3H9.028a.211.211,0,0,1,.212.21v.856a.211.211,0,0,1-.212.21H1.3v24.85H9.028a.21.21,0,0,1,.212.209v.856A.21.21,0,0,1,9.028,29.7Zm5.811-6.39H9.674V17.986a1.059,1.059,0,0,1,1.067-1.049l2.754-.005v.808c0,.035,0,.066,0,.094a.906.906,0,0,1-.913.9c-.021,0-.04,0-.06,0H11.5v2.852h2.582a3.3,3.3,0,0,0,3.32-3.262A3.231,3.231,0,0,0,15.554,15.4l-1.164-.566.934-.887a2.013,2.013,0,0,0,.643-1.473,2.064,2.064,0,0,0-2.08-2.044H11.5V12.2H9.674V8.665h4.743a3.887,3.887,0,0,1,3.38,3.806,3.786,3.786,0,0,1-.5,1.89,4.993,4.993,0,0,1,.683,7.268,5.173,5.173,0,0,1-3.136,1.682ZM17.975,1.273H9.641a.212.212,0,0,1-.214-.209V.209A.212.212,0,0,1,9.641,0h8.334a.211.211,0,0,1,.213.209v.855A.211.211,0,0,1,17.975,1.273Z" transform="translate(0 0)" fill="#3fae49"/></g></svg>